<?xml version="1.0" encoding="UTF-8"?>
<!DOCTYPE svg PUBLIC "-//W3C//DTD SVG 1.1//EN" "http://www.w3.org/Graphics/SVG/1.1/DTD/svg11.dtd">
<svg xmlns="http://www.w3.org/2000/svg" version="1.1" width="225px" height="225px" style="shape-rendering:geometricPrecision; text-rendering:geometricPrecision; image-rendering:optimizeQuality; fill-rule:evenodd; clip-rule:evenodd" xmlns:xlink="http://www.w3.org/1999/xlink">
<g><path style="opacity:1" fill="#fefefe" d="M -0.5,-0.5 C 74.5,-0.5 149.5,-0.5 224.5,-0.5C 224.5,74.5 224.5,149.5 224.5,224.5C 149.5,224.5 74.5,224.5 -0.5,224.5C -0.5,149.5 -0.5,74.5 -0.5,-0.5 Z"/></g>
<g><path style="opacity:1" fill="#4d525a" d="M 118.5,189.5 C 118.5,191.833 118.5,194.167 118.5,196.5C 103.5,196.5 88.5,196.5 73.5,196.5C 73.5,194.167 73.5,191.833 73.5,189.5C 79.8333,189.5 86.1667,189.5 92.5,189.5C 92.6666,173.83 92.4999,158.163 92,142.5C 75,121.5 58,100.5 41,79.5C 40.1751,77.2992 40.6751,75.4659 42.5,74C 47.1667,73.6667 51.8333,73.3333 56.5,73C 47.1667,63.6667 37.8333,54.3333 28.5,45C 30.08,42.7049 32.08,41.3716 34.5,41C 45.1667,51.6667 55.8333,62.3333 66.5,73C 93.5,73.3333 120.5,73.6667 147.5,74C 149.325,75.4659 149.825,77.2992 149,79.5C 142.804,86.7286 136.971,94.2286 131.5,102C 142.495,102.5 153.495,102.667 164.5,102.5C 164.5,89.8333 164.5,77.1667 164.5,64.5C 153.167,64.5 141.833,64.5 130.5,64.5C 130.5,66.5 130.5,68.5 130.5,70.5C 128.167,70.5 125.833,70.5 123.5,70.5C 123.5,68.5 123.5,66.5 123.5,64.5C 121.833,64.5 120.167,64.5 118.5,64.5C 118.5,66.5 118.5,68.5 118.5,70.5C 116.167,70.5 113.833,70.5 111.5,70.5C 108.994,60.0084 112.994,55.675 123.5,57.5C 123.768,54.8806 123.435,52.3806 122.5,50C 112.339,44.7539 102.339,39.2539 92.5,33.5C 93.604,31.6115 94.9373,29.9448 96.5,28.5C 107.5,34.3333 118.5,40.1667 129.5,46C 130.46,49.73 130.793,53.5633 130.5,57.5C 133.167,57.5 135.833,57.5 138.5,57.5C 143.384,38.8853 155.384,31.052 174.5,34C 191.86,40.2185 198.694,52.3851 195,70.5C 191.291,82.0445 183.457,88.7112 171.5,90.5C 171.667,124.835 171.5,159.168 171,193.5C 170.167,194.333 169.333,195.167 168.5,196C 153.504,196.5 138.504,196.667 123.5,196.5C 123.5,194.167 123.5,191.833 123.5,189.5C 137.167,189.5 150.833,189.5 164.5,189.5C 164.5,162.833 164.5,136.167 164.5,109.5C 153.167,109.5 141.833,109.5 130.5,109.5C 130.662,107.473 130.495,105.473 130,103.5C 120,116.167 110,128.833 100,141.5C 99.5001,157.497 99.3334,173.497 99.5,189.5C 105.833,189.5 112.167,189.5 118.5,189.5 Z"/></g>
<g><path style="opacity:1" fill="#f9f9f9" d="M 163.5,39.5 C 181.61,40.1087 190.11,49.442 189,67.5C 186.05,76.6203 179.884,81.9537 170.5,83.5C 170.666,75.4931 170.5,67.4931 170,59.5C 169.5,59 169,58.5 168.5,58C 160.841,57.5003 153.174,57.3336 145.5,57.5C 147.866,47.8006 153.866,41.8006 163.5,39.5 Z"/></g>
<g><path style="opacity:1" fill="#63676e" d="M 138.5,81.5 C 117.167,80.1667 95.8333,80.1667 74.5,81.5C 73.9569,81.44 73.6236,81.1067 73.5,80.5C 95.5,79.1667 117.5,79.1667 139.5,80.5C 139.376,81.1067 139.043,81.44 138.5,81.5 Z"/></g>
<g><path style="opacity:1" fill="#fafafb" d="M 74.5,81.5 C 95.8333,80.1667 117.167,80.1667 138.5,81.5C 124.645,99.8733 110.312,117.873 95.5,135.5C 80.4548,117.79 65.7882,99.7902 51.5,81.5C 55.7953,80.3391 60.1287,80.1725 64.5,81C 68.0456,84.8818 71.8789,88.3818 76,91.5C 77.9597,90.7082 79.4597,89.3749 80.5,87.5C 78.8122,85.1455 76.8122,83.1455 74.5,81.5 Z"/></g>
<g><path style="opacity:1" fill="#4d525a" d="M 82.5,83.5 C 92.1591,85.651 98.9924,91.3176 103,100.5C 103.169,111.66 97.6694,116.493 86.5,115C 85.1667,114.333 83.8333,113.667 82.5,113C 79.3333,109.167 76.1667,105.333 73,101.5C 72.3333,98.5 72.3333,95.5 73,92.5C 80.3711,94.3019 83.5378,91.3019 82.5,83.5 Z"/></g>
<g><path style="opacity:1" fill="#f7f7f8" d="M 87.5,93.5 C 92.9522,95.7658 95.7855,99.7658 96,105.5C 93.7897,108.29 90.9563,109.123 87.5,108C 84.794,105.629 82.4606,102.963 80.5,100C 84.0084,98.9883 86.3418,96.8217 87.5,93.5 Z"/></g>
<g><path style="opacity:1" fill="#50555d" d="M 102.5,111.5 C 108.622,113.865 108.956,116.865 103.5,120.5C 97.5408,117.706 97.2074,114.706 102.5,111.5 Z"/></g>
<g><path style="opacity:1" fill="#444a53" d="M 128.5,118.5 C 130.5,118.5 132.5,118.5 134.5,118.5C 134.5,120.833 134.5,123.167 134.5,125.5C 132.5,125.5 130.5,125.5 128.5,125.5C 128.5,123.167 128.5,120.833 128.5,118.5 Z"/></g>
<g><path style="opacity:1" fill="#a1a3a6" d="M 128.5,118.5 C 128.5,120.833 128.5,123.167 128.5,125.5C 130.5,125.5 132.5,125.5 134.5,125.5C 132.393,126.468 130.059,126.802 127.5,126.5C 127.194,123.615 127.527,120.948 128.5,118.5 Z"/></g>
<g><path style="opacity:1" fill="#656a71" d="M 118.5,130.5 C 116.5,130.5 114.5,130.5 112.5,130.5C 112.5,149.167 112.5,167.833 112.5,186.5C 114.5,186.5 116.5,186.5 118.5,186.5C 116.393,187.468 114.059,187.802 111.5,187.5C 111.5,168.167 111.5,148.833 111.5,129.5C 114.059,129.198 116.393,129.532 118.5,130.5 Z"/></g>
<g><path style="opacity:1" fill="#484d56" d="M 118.5,130.5 C 118.5,149.167 118.5,167.833 118.5,186.5C 116.5,186.5 114.5,186.5 112.5,186.5C 112.5,167.833 112.5,149.167 112.5,130.5C 114.5,130.5 116.5,130.5 118.5,130.5 Z"/></g>
<g><path style="opacity:1" fill="#444a52" d="M 152.5,129.5 C 152.5,131.833 152.5,134.167 152.5,136.5C 150.5,136.5 148.5,136.5 146.5,136.5C 146.5,134.167 146.5,131.833 146.5,129.5C 148.5,129.5 150.5,129.5 152.5,129.5 Z"/></g>
<g><path style="opacity:1" fill="#a9abae" d="M 152.5,129.5 C 153.473,131.948 153.806,134.615 153.5,137.5C 150.941,137.802 148.607,137.468 146.5,136.5C 148.5,136.5 150.5,136.5 152.5,136.5C 152.5,134.167 152.5,131.833 152.5,129.5 Z"/></g>
<g><path style="opacity:1" fill="#999b9f" d="M 134.5,144.5 C 132.5,144.5 130.5,144.5 128.5,144.5C 128.5,146.833 128.5,149.167 128.5,151.5C 127.527,149.052 127.194,146.385 127.5,143.5C 130.059,143.198 132.393,143.532 134.5,144.5 Z"/></g>
<g><path style="opacity:1" fill="#444a52" d="M 134.5,144.5 C 134.5,146.833 134.5,149.167 134.5,151.5C 132.5,151.5 130.5,151.5 128.5,151.5C 128.5,149.167 128.5,146.833 128.5,144.5C 130.5,144.5 132.5,144.5 134.5,144.5 Z"/></g>
<g><path style="opacity:1" fill="#8c8f93" d="M 146.5,155.5 C 148.607,154.532 150.941,154.198 153.5,154.5C 153.5,157.167 153.5,159.833 153.5,162.5C 150.941,162.802 148.607,162.468 146.5,161.5C 148.5,161.5 150.5,161.5 152.5,161.5C 152.5,159.5 152.5,157.5 152.5,155.5C 150.5,155.5 148.5,155.5 146.5,155.5 Z"/></g>
<g><path style="opacity:1" fill="#484d55" d="M 146.5,155.5 C 148.5,155.5 150.5,155.5 152.5,155.5C 152.5,157.5 152.5,159.5 152.5,161.5C 150.5,161.5 148.5,161.5 146.5,161.5C 146.5,159.5 146.5,157.5 146.5,155.5 Z"/></g>
<g><path style="opacity:1" fill="#434951" d="M 128.5,169.5 C 130.5,169.5 132.5,169.5 134.5,169.5C 134.5,171.833 134.5,174.167 134.5,176.5C 132.5,176.5 130.5,176.5 128.5,176.5C 128.5,174.167 128.5,171.833 128.5,169.5 Z"/></g>
<g><path style="opacity:1" fill="#a3a5a9" d="M 128.5,169.5 C 128.5,171.833 128.5,174.167 128.5,176.5C 130.5,176.5 132.5,176.5 134.5,176.5C 132.393,177.468 130.059,177.802 127.5,177.5C 127.194,174.615 127.527,171.948 128.5,169.5 Z"/></g>
<g><path style="opacity:1" fill="#d3d4d6" d="M 73.5,189.5 C 73.5,191.833 73.5,194.167 73.5,196.5C 88.5,196.5 103.5,196.5 118.5,196.5C 118.5,194.167 118.5,191.833 118.5,189.5C 119.473,191.948 119.806,194.615 119.5,197.5C 103.833,197.5 88.1667,197.5 72.5,197.5C 72.1936,194.615 72.5269,191.948 73.5,189.5 Z"/></g>
</svg>
