<?xml version="1.0" encoding="UTF-8"?>
<!DOCTYPE svg PUBLIC "-//W3C//DTD SVG 1.1//EN" "http://www.w3.org/Graphics/SVG/1.1/DTD/svg11.dtd">
<svg xmlns="http://www.w3.org/2000/svg" version="1.1" width="249px" height="202px" style="shape-rendering:geometricPrecision; text-rendering:geometricPrecision; image-rendering:optimizeQuality; fill-rule:evenodd; clip-rule:evenodd" xmlns:xlink="http://www.w3.org/1999/xlink">
<g><path style="opacity:1" fill="#fefefe" d="M -0.5,-0.5 C 41.5,-0.5 83.5,-0.5 125.5,-0.5C 122.275,1.21311 119.441,3.54644 117,6.5C 116.21,9.63396 116.543,12.634 118,15.5C 129.167,24.6667 140.333,33.8333 151.5,43C 117.167,43.3333 82.8333,43.6667 48.5,44C 37.7624,46.6859 33.9291,53.1859 37,63.5C 38.7309,65.6166 40.8976,67.1166 43.5,68C 61.5,68.3333 79.5,68.6667 97.5,69C 68.6796,91.2428 39.6796,113.243 10.5,135C 5.86328,138.794 2.19662,143.294 -0.5,148.5C -0.5,98.8333 -0.5,49.1667 -0.5,-0.5 Z"/></g>
<g><path style="opacity:1" fill="#fefefe" d="M 133.5,-0.5 C 171.833,-0.5 210.167,-0.5 248.5,-0.5C 248.5,37.5 248.5,75.5 248.5,113.5C 245.041,93.7565 235.708,77.2565 220.5,64C 193.32,43.5757 166.32,22.9091 139.5,2C 137.389,1.15532 135.389,0.321983 133.5,-0.5 Z"/></g>
<g><path style="opacity:1" fill="#ea7602" d="M 125.5,-0.5 C 128.167,-0.5 130.833,-0.5 133.5,-0.5C 135.389,0.321983 137.389,1.15532 139.5,2C 166.32,22.9091 193.32,43.5757 220.5,64C 235.708,77.2565 245.041,93.7565 248.5,113.5C 248.5,118.5 248.5,123.5 248.5,128.5C 241.981,166.194 219.981,189.694 182.5,199C 177.339,199.732 172.339,200.566 167.5,201.5C 162.167,201.5 156.833,201.5 151.5,201.5C 123.03,197.538 100.863,183.538 85,159.5C 78.2906,147.601 75.2906,134.935 76,121.5C 60.8333,134 45.6667,146.5 30.5,159C 24.5206,164.494 17.5206,166.828 9.5,166C 4.55732,163.894 1.22399,160.394 -0.5,155.5C -0.5,153.167 -0.5,150.833 -0.5,148.5C 2.19662,143.294 5.86328,138.794 10.5,135C 39.6796,113.243 68.6796,91.2428 97.5,69C 79.5,68.6667 61.5,68.3333 43.5,68C 40.8976,67.1166 38.7309,65.6166 37,63.5C 33.9291,53.1859 37.7624,46.6859 48.5,44C 82.8333,43.6667 117.167,43.3333 151.5,43C 140.333,33.8333 129.167,24.6667 118,15.5C 116.543,12.634 116.21,9.63396 117,6.5C 119.441,3.54644 122.275,1.21311 125.5,-0.5 Z"/></g>
<g><path style="opacity:1" fill="#fdfcfc" d="M 151.5,68.5 C 175.14,65.7495 193.973,73.7495 208,92.5C 219.848,116.616 215.348,137.116 194.5,154C 178.258,163.866 160.924,166.199 142.5,161C 111.806,147.128 102.639,124.628 115,93.5C 123.896,80.3086 136.063,71.9752 151.5,68.5 Z"/></g>
<g><path style="opacity:1" fill="#265787" d="M 155.5,84.5 C 173.924,82.0045 187.091,89.0045 195,105.5C 198.541,124.656 191.041,137.489 172.5,144C 152.221,147.615 138.055,140.115 130,121.5C 128.094,101.975 136.594,89.6414 155.5,84.5 Z"/></g>
<g><path style="opacity:1" fill="#fefefd" d="M 151.5,201.5 C 100.833,201.5 50.1667,201.5 -0.5,201.5C -0.5,186.167 -0.5,170.833 -0.5,155.5C 1.22399,160.394 4.55732,163.894 9.5,166C 17.5206,166.828 24.5206,164.494 30.5,159C 45.6667,146.5 60.8333,134 76,121.5C 75.2906,134.935 78.2906,147.601 85,159.5C 100.863,183.538 123.03,197.538 151.5,201.5 Z"/></g>
<g><path style="opacity:1" fill="#fefdfb" d="M 248.5,128.5 C 248.5,152.833 248.5,177.167 248.5,201.5C 221.5,201.5 194.5,201.5 167.5,201.5C 172.339,200.566 177.339,199.732 182.5,199C 219.981,189.694 241.981,166.194 248.5,128.5 Z"/></g>
</svg>
