<?xml version="1.0" standalone="no"?>
<!DOCTYPE svg PUBLIC "-//W3C//DTD SVG 20010904//EN"
 "http://www.w3.org/TR/2001/REC-SVG-20010904/DTD/svg10.dtd">
<svg version="1.0" xmlns="http://www.w3.org/2000/svg"
 width="225.000000pt" height="225.000000pt" viewBox="0 0 225.000000 225.000000"
 preserveAspectRatio="xMidYMid meet">

<g transform="translate(0.000000,225.000000) scale(0.100000,-0.100000)"
fill="#000000" stroke="none">
<path d="M1088 2102 c-62 -34 -68 -40 -68 -69 0 -38 1 -38 -43 -17 -33 16 -34
16 -138 -39 l-104 -55 -3 -283 -2 -284 219 -109 219 -108 213 110 214 110 0
254 c0 315 2 309 -127 375 -84 43 -88 43 -117 28 -40 -20 -41 -20 -41 18 0 30
-5 35 -73 70 -39 20 -74 37 -77 37 -3 0 -35 -17 -72 -38z"/>
<path d="M75 1033 c-16 -8 -32 -17 -34 -19 -6 -6 54 -94 65 -94 5 0 18 6 27
13 15 11 15 16 1 65 -9 28 -19 52 -22 52 -4 -1 -20 -8 -37 -17z"/>
<path d="M890 1007 c-6 -23 -13 -49 -16 -58 -3 -10 5 -20 22 -28 15 -6 28 -10
29 -9 13 17 57 100 54 102 -2 2 -21 11 -41 19 l-38 16 -10 -42z"/>
<path d="M1441 999 c-15 -67 -14 -68 11 -78 19 -7 26 -2 50 33 24 36 35 66 24
66 -2 0 -20 7 -39 15 l-35 15 -11 -51z"/>
<path d="M1125 844 c-57 -14 -109 -64 -119 -116 -13 -67 9 -106 135 -233 116
-118 129 -138 113 -180 -8 -21 -56 -45 -89 -45 -30 0 -75 21 -94 44 -12 14
-18 12 -52 -15 -22 -17 -39 -34 -39 -39 0 -19 101 -81 145 -89 152 -28 281
101 231 232 -11 31 -50 76 -131 157 -122 120 -135 145 -93 174 29 21 56 20 93
-3 l31 -18 37 32 37 33 -35 31 c-31 27 -47 34 -105 45 -9 2 -38 -3 -65 -10z"/>
<path d="M2058 852 l-108 -3 0 -216 0 -216 34 6 c51 8 139 54 204 107 l57 46
3 100 3 99 -43 40 -43 40 -107 -3z m68 -102 c34 0 34 0 34 -48 0 -41 -5 -53
-32 -79 -18 -17 -42 -33 -53 -35 -18 -3 -20 3 -23 71 -3 85 2 106 24 97 9 -3
31 -6 50 -6z"/>
<path d="M70 651 l0 -200 37 -30 c21 -17 43 -31 50 -31 10 0 13 51 13 230 l0
230 -50 0 -50 0 0 -199z"/>
<path d="M241 610 c0 -232 1 -241 21 -260 12 -11 27 -20 32 -20 6 0 21 -3 34
-6 l22 -6 0 216 0 216 45 0 45 0 0 -219 c0 -216 0 -220 22 -235 12 -9 35 -16
50 -16 l28 0 0 98 c0 55 3 160 7 235 l6 137 54 0 53 0 0 -250 0 -249 38 -10
c20 -6 43 -11 50 -11 9 0 12 69 12 310 l0 310 -259 0 -260 0 0 -240z"/>
<path d="M840 535 l0 -315 23 -14 c12 -7 34 -16 50 -20 l27 -6 0 335 0 335
-50 0 -50 0 0 -315z"/>
<path d="M1410 515 l0 -335 37 15 c67 28 63 8 63 346 l0 309 -50 0 -50 0 0
-335z"/>
<path d="M1590 799 l0 -51 100 4 100 4 0 -43 0 -43 -100 0 -100 0 0 -50 0 -50
100 0 100 0 0 -69 0 -69 -37 -18 c-21 -10 -65 -28 -98 -40 l-60 -22 -3 -51
c-2 -41 0 -51 12 -51 26 0 191 69 240 101 l46 29 0 235 0 235 -150 0 -150 0 0
-51z"/>
</g>
</svg>
