<?xml version="1.0" encoding="UTF-8"?>
<!DOCTYPE svg PUBLIC "-//W3C//DTD SVG 1.1//EN" "http://www.w3.org/Graphics/SVG/1.1/DTD/svg11.dtd">
<svg xmlns="http://www.w3.org/2000/svg" version="1.1" width="225px" height="225px" style="shape-rendering:geometricPrecision; text-rendering:geometricPrecision; image-rendering:optimizeQuality; fill-rule:evenodd; clip-rule:evenodd" xmlns:xlink="http://www.w3.org/1999/xlink">
<g><path style="opacity:1" fill="#fefefe" d="M -0.5,-0.5 C 74.5,-0.5 149.5,-0.5 224.5,-0.5C 224.5,74.5 224.5,149.5 224.5,224.5C 149.5,224.5 74.5,224.5 -0.5,224.5C -0.5,149.5 -0.5,74.5 -0.5,-0.5 Z"/></g>
<g><path style="opacity:1" fill="#0d0d0d" d="M 26.5,27.5 C 84.5631,43.6865 142.563,60.1865 200.5,77C 201.022,77.5613 201.355,78.228 201.5,79C 158.357,121.142 114.857,162.976 71,204.5C 70.0546,204.095 69.3879,203.428 69,202.5C 54.3559,144.258 40.1893,85.9244 26.5,27.5 Z"/></g>
<g><path style="opacity:1" fill="#f9f9f9" d="M 31.5,32.5 C 43.5834,35.6878 55.5834,39.1878 67.5,43C 58.3489,51.3171 49.3489,59.8171 40.5,68.5C 36.8877,56.7176 33.8877,44.7176 31.5,32.5 Z"/></g>
<g><path style="opacity:1" fill="#f8f8f8" d="M 74.5,44.5 C 86.3351,47.7074 98.0018,51.374 109.5,55.5C 100.86,63.8057 92.1932,72.1391 83.5,80.5C 79.5621,68.7485 76.5621,56.7485 74.5,44.5 Z"/></g>
<g><path style="opacity:1" fill="#f6f6f6" d="M 69.5,45.5 C 73.2733,56.9089 76.6066,68.5755 79.5,80.5C 78.8333,80.8333 78.1667,81.1667 77.5,81.5C 66.0644,78.4749 54.7311,75.1416 43.5,71.5C 52.1999,62.8267 60.8665,54.16 69.5,45.5 Z"/></g>
<g><path style="opacity:1" fill="#f7f7f7" d="M 116.5,56.5 C 128.589,59.856 140.589,63.5226 152.5,67.5C 143.541,75.9583 134.708,84.6249 126,93.5C 122.359,81.2684 119.192,68.9351 116.5,56.5 Z"/></g>
<g><path style="opacity:1" fill="#f6f6f6" d="M 112.5,57.5 C 116.102,69.2399 119.102,81.2399 121.5,93.5C 109.598,90.9771 97.9317,87.6438 86.5,83.5C 94.8814,74.4519 103.548,65.7853 112.5,57.5 Z"/></g>
<g><path style="opacity:1" fill="#f9f9f9" d="M 159.5,69.5 C 171.683,72.5071 183.683,76.0071 195.5,80C 186.97,88.8641 178.137,97.3641 169,105.5C 165.209,93.6701 162.042,81.6701 159.5,69.5 Z"/></g>
<g><path style="opacity:1" fill="#f6f6f6" d="M 154.5,70.5 C 156.045,71.2297 156.878,72.563 157,74.5C 159.5,84.5 162,94.5 164.5,104.5C 164.167,105.167 163.833,105.833 163.5,106.5C 151.782,103.154 140.115,99.654 128.5,96C 137.062,87.2704 145.728,78.7704 154.5,70.5 Z"/></g>
<g><path style="opacity:1" fill="#f9f9f9" d="M 41.5,75.5 C 53.6668,78.3756 65.6668,81.8756 77.5,86C 68.9702,94.8641 60.1369,103.364 51,111.5C 47.2629,99.6466 44.0962,87.6466 41.5,75.5 Z"/></g>
<g><path style="opacity:1" fill="#f9f9f9" d="M 84.5,87.5 C 96.5713,90.6853 108.571,94.1853 120.5,98C 111.97,106.864 103.137,115.364 94,123.5C 90.8278,111.477 87.6612,99.4768 84.5,87.5 Z"/></g>
<g><path style="opacity:1" fill="#f7f7f7" d="M 80.5,88.5 C 84.0102,100.516 87.3435,112.682 90.5,125C 78.0278,122.464 65.6945,119.131 53.5,115C 62.3951,105.937 71.3951,97.1037 80.5,88.5 Z"/></g>
<g><path style="opacity:1" fill="#fafafa" d="M 127.5,99.5 C 139.614,103.038 151.614,106.871 163.5,111C 154.97,119.864 146.137,128.364 137,136.5C 133.362,124.282 130.196,111.949 127.5,99.5 Z"/></g>
<g><path style="opacity:1" fill="#f7f7f7" d="M 122.5,101.5 C 123.966,102.347 124.8,103.68 125,105.5C 127.504,116.181 130.004,126.847 132.5,137.5C 120.205,134.9 108.205,131.4 96.5,127C 105.062,118.27 113.728,109.77 122.5,101.5 Z"/></g>
<g><path style="opacity:1" fill="#f9f9f9" d="M 52.5,118.5 C 64.2013,122.01 75.868,125.676 87.5,129.5C 79.4668,138.534 70.8001,146.867 61.5,154.5C 58.1927,142.604 55.1927,130.604 52.5,118.5 Z"/></g>
<g><path style="opacity:1" fill="#f6f6f6" d="M 89.5,132.5 C 91.7761,132.756 92.9428,134.09 93,136.5C 95.9848,147.097 98.3181,157.764 100,168.5C 88.0985,165.066 76.2652,161.399 64.5,157.5C 73.1877,149.479 81.521,141.146 89.5,132.5 Z"/></g>
<g><path style="opacity:1" fill="#f7f7f7" d="M 95.5,131.5 C 107.64,134.491 119.64,137.991 131.5,142C 122.363,150.136 113.53,158.636 105,167.5C 101.208,155.665 98.0413,143.665 95.5,131.5 Z"/></g>
<g><path style="opacity:1" fill="#f9f9f9" d="M 62.5,161.5 C 74.9616,164.699 87.2949,168.366 99.5,172.5C 90.5265,181.139 81.5265,189.806 72.5,198.5C 68.9133,186.232 65.58,173.899 62.5,161.5 Z"/></g>
</svg>
